<svg xmlns="http://www.w3.org/2000/svg" xmlns:xlink="http://www.w3.org/1999/xlink" viewBox="0 0 269 260">
  <animateTransform
    xlink:href="#cabin"
    attributeName="transform"
    type="skewX"
    values="0; -2; 0; 2; 0"
    dur="2s"
    repeatCount="indefinite"
    additive="sum"/>
  <animateTransform
    xlink:href="#cabin"
    attributeName="transform"
    type="translate"
    values="0, 0; 5, -1.5; 0, 0; -5, -1.5; 0, 0"
    dur="2s"
    repeatCount="indefinite"
    additive="sum"/>

  <animateTransform
    xlink:href="#frontWings"
    attributeName="transform"
    type="translate"
    values="0 0; 0, -2; 0 0; 0, 2; 0 0"
    dur="2s"
    repeatCount="indefinite"/>

  <animateTransform
    xlink:href="#backWings"
    attributeName="transform"
    type="translate"
    values="0 0; 0, 2; 0 0; 0, -2; 0 0"
    dur="2s"
    repeatCount="indefinite"/>

  <animate
    xlink:href="#airshipAxis"
    dur="2s"
    attributeName="d"
    values="M91.41 116.66c16.74-4.27 44.58-10 71.81-10 44.53 0 73.26 6.43 73.61 14.38v.51c-.85 7.86-29.45 14.17-73.6 14.17-28.23 0-56.07-5.76-72.81-10-3.79-1-5.79-2.53-6-4.13v-.51c.13-1.69 2.15-3.36 6.1-4.37; M91.41 116.66c17.25-2.7 44.58-6.63 71.81-6.63 44.53 0 69 3.7 73.61 11.01v.51c-.85 7.86-29.45 18.93-73.6 18.93-28.23 0-58.08-8.71-72.81-14.76-3.63-1.49-5.79-2.53-6-4.13v-.51c.13-1.69 2.15-3.36 6.1-4.37; M91.41 116.66c16.74-4.27 44.58-10 71.81-10 44.53 0 73.26 6.43 73.61 14.38v.51c-.85 7.86-29.45 14.17-73.6 14.17-28.23 0-56.07-5.76-72.81-10-3.79-1-5.79-2.53-6-4.13v-.51c.13-1.69 2.15-3.36 6.1-4.37; M91.41 116.66c15.2-6.63 44.58-15.71 72.81-15.72 44.53 0 73.26 12.15 73.61 20.1v.51c-4.28 7.86-30.9 10.22-73.6 10.22-28.23 0-57.4-3.86-72.81-6.05-3.88-.55-5.79-2.53-6-4.13v-.51c.13-1.69 2.15-3.36 6.1-4.37; M91.41 116.66c16.74-4.27 44.58-10 71.81-10 44.53 0 73.26 6.43 73.61 14.38v.51c-.85 7.86-29.45 14.17-73.6 14.17-28.23 0-56.07-5.76-72.81-10-3.79-1-5.79-2.53-6-4.13v-.51c.13-1.69 2.15-3.36 6.1-4.37;"
    repeatCount="indefinite"/>

  <animate
    xlink:href="#waveA"
    begin="-0.1s"
    attributeName="x2"
    values="43; 40; 43"
    dur="0.35s"
    repeatCount="indefinite"/>
  <animate
    xlink:href="#waveB"
    begin="0.1s"
    attributeName="x2"
    values="40; 45; 40"
    dur="0.35s"
    repeatCount="indefinite"/>
  <animate
    xlink:href="#waveC"
    begin="0s"
    attributeName="x2"
    values="24; 30; 24"
    dur="0.35s"
    repeatCount="indefinite"/>

  <animate
    xlink:href="#cloudA"
    id="cloudAOpacity"
    attributeName="stroke-opacity"
    dur="2s"
    values="0; 1; 1; 0"
    keyTimes="0; 0.1; 0.8; 1"
    fill="freeze"/>
  <animateTransform
    xlink:href="#cloudA"
    attributeName="transform"
    type="translate"
    from="170"
    to="0"
    dur="2s"
    fill="freeze"/>
  <animateTransform
    xlink:href="#cloudsALine"
    attributeName="transform"
    type="translate"
    from="0"
    to="20"
    dur="2s"
    fill="freeze"/>

  <animate
    xlink:href="#cloudB"
    id="cloudBOpacity"
    begin="cloudAOpacity.end-0.4s"
    attributeName="stroke-opacity"
    dur="2s"
    values="0; 1; 1; 0"
    fill="freeze" />
  <animateTransform
    xlink:href="#cloudB"
    begin="cloudAOpacity.end-0.4s"
    attributeName="transform"
    type="translate"
    from="30"
    to="-130"
    dur="2s"
    fill="freeze" />
  <animateTransform
    xlink:href="#cloudsBLineA"
    begin="1.6s"
    attributeName="transform"
    type="translate"
    from="0"
    to="20"
    dur="3s"
    fill="freeze" />

  <animate
    xlink:href="#mountains"
    id="mountainsMorph"
    begin="cloudBOpacity.end-0.5s"
    dur="0.5s"
    attributeName="d"
    to="M249.17 258.42h-45.06 l-32.08 0 a1.89 1.89 0 00 0 0 l-10.2 0 a1.72 1.72 0 01 0 0 l-19 0 a2.4 2.4 0 00 0 0 l-26.42 0 a1.71 1.71 0 01 0 0 l-2.63 0 a1.71 1.71 0 00 0 0 l-17.57 0 H40.01"
    fill="freeze" />

  <animate
    xlink:href="#airship"
    attributeType="CSS"
    attributeName="opacity"
    begin="mountainsMorph.begin"
    dur="1s"
    from="1"
    to="0"
    fill="freeze"/>
  <animate
    xlink:href="#airshipWindow"
    attributeType="CSS"
    attributeName="opacity"
    begin="mountainsMorph.begin"
    dur="0.1s"
    from="1"
    to="0"
    fill="freeze"
  />
  <g id="from">
    <g id="airship">
      <g id="cabin">
        <path d="M175.44,249.28h48.36a13.27,13.27,0,0,0,13-10.65l3.74-18.32H172.36v25.89A3.09,3.09,0,0,0,175.44,249.28Z" transform="translate(-40.77 -69.46)" fill="none" stroke="#fff" stroke-linecap="round" stroke-linejoin="round" stroke-width="2"/>
        <path d="M235.79,241.69h-9.22a8.31,8.31,0,0,1-8.28-8.31V220.31" transform="translate(-40.77 -69.46)" fill="none" stroke="#fff" stroke-linecap="round" stroke-miterlimit="10" stroke-width="2"/>
        <g id="airshipWindow">
          <path d="M204.25,231.88h-2.05a3.45,3.45,0,0,0-3.43,3.45v2.92a3.45,3.45,0,0,0,3.43,3.45h2.05a3.45,3.45,0,0,0,3.43-3.45v-2.92A3.44,3.44,0,0,0,204.25,231.88Z" transform="translate(-40.77 -69.46)" fill="none" stroke="#fff" stroke-linecap="round" stroke-linejoin="round" stroke-width="2"/>
        </g>
        <path d="M185.64,231.88h-2.05a3.45,3.45,0,0,0-3.43,3.45v2.92a3.45,3.45,0,0,0,3.43,3.45h2.05a3.45,3.45,0,0,0,3.43-3.45v-2.92A3.45,3.45,0,0,0,185.64,231.88Z" transform="translate(-40.77 -69.46)" fill="none" stroke="#fff" stroke-linecap="round" stroke-linejoin="round" stroke-width="2"/>
      </g>
      <g id="frontWings">
        <path d="M123.23,173.34h9.16a3.29,3.29,0,0,1,3.29,3.3v5.71a3.29,3.29,0,0,1-3.29,3.3H115.57a1.32,1.32,0,0,1-1.32-1.32v-2a9,9,0,0,1,9-9" transform="translate(-40.77 -69.46)" fill="#068e4d"/>
        <path d="M123.23,173.34h9.16a3.29,3.29,0,0,1,3.29,3.3v5.71a3.29,3.29,0,0,1-3.29,3.3H115.57a1.32,1.32,0,0,1-1.32-1.32v-2A9,9,0,0,1,123.23,173.34Z" transform="translate(-40.77 -69.46)" fill="none" stroke="#fff" stroke-linecap="round" stroke-linejoin="round" stroke-width="2"/>
        <path d="M123.23,207.39h9.16a3.29,3.29,0,0,0,3.29-3.3v-5.71a3.29,3.29,0,0,0-3.29-3.3H115.57a1.32,1.32,0,0,0-1.32,1.32v2a9,9,0,0,0,9,9" transform="translate(-40.77 -69.46)" fill="#068e4d"/>
        <path d="M123.23,207.39h9.16a3.29,3.29,0,0,0,3.29-3.3v-5.71a3.29,3.29,0,0,0-3.29-3.3H115.57a1.32,1.32,0,0,0-1.32,1.32v2A9,9,0,0,0,123.23,207.39Z" transform="translate(-40.77 -69.46)" fill="none" stroke="#fff" stroke-linecap="round" stroke-linejoin="round" stroke-width="2"/>
      </g>
      <path d="M205,227.08c43.38,0,74.86-15.55,74.86-37s-31.48-37-74.86-37c-27.94,0-55.36,13.53-73.46,24.87a14.3,14.3,0,0,0,0,24.21c18.09,11.33,45.52,24.87,73.46,24.87" transform="translate(-40.77 -69.46)" fill="#068e4d"/>
      <path d="M205,227.08c43.38,0,74.86-15.55,74.86-37s-31.48-37-74.86-37c-27.94,0-55.36,13.53-73.46,24.87a14.3,14.3,0,0,0,0,24.21C149.63,213.54,177.06,227.08,205,227.08Z" transform="translate(-40.77 -69.46)" fill="none" stroke="#fff" stroke-width="2"/>
      <path d="M85.34 120.97a12.93 12.93 0 016.07-11.43c16.74-10.5 44.58-24.68 72.81-24.68 44.81 0 73.64 16 73.64 35.75v.37" fill="#36e69a"/>
      <path d="M132.18,195.12c16.74,4.27,44.58,10,72.81,10,44.14,0,72.75-6.32,73.6-14.18-0.86,19.34-29.45,34.86-73.6,34.86-28.23,0-56.07-14.19-72.81-24.68a12.88,12.88,0,0,1-6-10.18c0.26,1.61,2.26,3.18,6,4.14" transform="translate(-40.77 -69.46)" fill="#068e4d"/>
      <path id="airshipAxis" d="M91.41 116.66c16.74-4.27 44.58-10 72.81-10 44.53 0 73.26 6.43 73.61 14.38v.51c-.85 7.86-29.45 14.17-73.6 14.17-28.23 0-56.07-5.76-72.81-10-3.79-1-5.79-2.53-6-4.13v-.51c.13-1.69 2.15-3.36 6.1-4.37" fill="#25b774"/>
      <g id="backWings">
        <path d="M123.23,173.34h9.16a3.29,3.29,0,0,1,3.29,3.3v5.71a3.29,3.29,0,0,1-3.29,3.3H115.57a1.32,1.32,0,0,1-1.32-1.32v-2a9,9,0,0,1,9-9" transform="translate(-40.77 -69.46)" fill="#068e4d"/>
        <path d="M123.23,173.34h9.16a3.29,3.29,0,0,1,3.29,3.3v5.71a3.29,3.29,0,0,1-3.29,3.3H115.57a1.32,1.32,0,0,1-1.32-1.32v-2A9,9,0,0,1,123.23,173.34Z" transform="translate(-40.77 -69.46)" fill="none" stroke="#fff" stroke-linecap="round" stroke-linejoin="round" stroke-width="2"/>
        <path d="M123.23,207.39h9.16a3.29,3.29,0,0,0,3.29-3.3v-5.71a3.29,3.29,0,0,0-3.29-3.3H115.57a1.32,1.32,0,0,0-1.32,1.32v2a9,9,0,0,0,9,9" transform="translate(-40.77 -69.46)" fill="#068e4d"/>
        <path d="M123.23,207.39h9.16a3.29,3.29,0,0,0,3.29-3.3v-5.71a3.29,3.29,0,0,0-3.29-3.3H115.57a1.32,1.32,0,0,0-1.32,1.32v2A9,9,0,0,0,123.23,207.39Z" transform="translate(-40.77 -69.46)" fill="none" stroke="#fff" stroke-linecap="round" stroke-linejoin="round" stroke-width="2"/>
      </g>
      <line id="waveA" x1="65.48" y1="110.03" x2="43.28" y2="110.03" fill="none" stroke="#fff" stroke-linecap="round" stroke-miterlimit="10" stroke-width="2"/>
      <line id="waveB" x1="65.48" y1="131.77" x2="43.28" y2="131.77" fill="none" stroke="#fff" stroke-linecap="round" stroke-miterlimit="10" stroke-width="2"/>
      <line id="waveC" x1="65.48" y1="121.52" x2="28" y2="121.52" fill="none" stroke="#fff" stroke-linecap="round" stroke-miterlimit="10" stroke-width="2"/>
    </g>
    <g id="cloudA" stroke-opacity="0">
      <line id="cloudsALine" x1="28.18" y1="38.34" x2="91.09" y2="38.34" fill="none" stroke="#fff" stroke-linecap="round" stroke-miterlimit="10" stroke-width="2"/>
      <path id="cloudsAPath" d="M41.77,97.54H77.06a12.4,12.4,0,1,1,24.8,0h17.93" transform="translate(-40.77 -69.46)" fill="none" stroke="#fff" stroke-linecap="round" stroke-miterlimit="10" stroke-width="2"/>
    </g>
    <g id="cloudB" stroke-opacity="0">
      <line id="cloudsBLineA" x1="218.19" y1="23.72" x2="257.97" y2="23.72" fill="none" stroke="#fff" stroke-linecap="round" stroke-miterlimit="10" stroke-width="2"/>
      <path d="M278.75,82.91H251.39a12.4,12.4,0,1,0-24.8,0H208.65" transform="translate(-40.77 -69.46)" fill="none" stroke="#fff" stroke-linecap="round" stroke-miterlimit="10" stroke-width="2"/>
      <line x1="246.24" y1="13.45" x2="268.43" y2="13.45" fill="none" stroke="#fff" stroke-linecap="round" stroke-miterlimit="10" stroke-width="2"/>
    </g>
    <path id="mountains" d="M249.17 258.42h-45.06l-32.08-31.3a1.89 1.89 0 00-2.44 0l-10.2 10.23a1.72 1.72 0 01-2.25 0l-19-20.17a2.4 2.4 0 00-3.1 0l-26.42 25.64a1.71 1.71 0 01-2.25 0l-2.63-2.92a1.71 1.71 0 00-2.31 0l-17.57 19.64H40.01" fill="none" stroke="#fff" stroke-linecap="round" stroke-miterlimit="10" stroke-width="2"/>
  </g>

  <set xlink:href="#windowTo" attributeName="stroke-opacity" to="0"/>
  <animate
    xlink:href="#windowTo"
    attributeName="stroke-opacity"
    begin="mountainsMorph.begin"
    dur="0.2s"
    from="0"
    to="1"
    fill="freeze"
  />
  <animateTransform
    xlink:href="#windowTo"
    attributeName="transform"
    type="translate"
    values="116 120; 0 0"
    keyTimes="0; 1"
    dur="0.5s"
    begin="mountainsMorph.begin"
    additive="sum" />
  <animateTransform
    xlink:href="#windowTo"
    attributeName="transform"
    type="scale"
    values="0.18 0.15; 1 1"
    keyTimes="0; 1"
    dur="0.5s"
    begin="mountainsMorph.begin"
    additive="sum" />

  <animateTransform
    id="seatTransform"
    xlink:href="#seat"
    begin="mountainsMorph.begin + 0.3s"
    attributeName="transform"
    type="translate"
    from="-300"
    to="0"
    dur="0.3s"
    fill="freeze" />

  <animateTransform
    id="skisTransform"
    xlink:href="#skis"
    begin="seatTransform.begin + 0.1s"
    attributeName="transform"
    type="translate"
    from="-300"
    to="0"
    dur="0.3s"
    fill="freeze" />

  <animateTransform
    id="herbTransform"
    xlink:href="#herb"
    begin="seatTransform.begin + 0.1s"
    attributeName="transform"
    type="translate"
    from="-300"
    to="0"
    dur="0.3s"
    fill="freeze" />

  <animateTransform
    id="herbRotate"
    xlink:href="#herb"
    begin="herbTransform.begin + 0.25s"
    attributeName="transform"
    type="rotate"
    values="0, 95, 223.1; 3, 95, 223.1; -2, 95, 223.1; 0, 95, 223.1; 1, 95, 223.1; -0.5, 95, 223.1; 0, 95, 223.1"
    dur="1s"
    additive="sum" />

  <animateTransform
    id="cloudsTransform"
    xlink:href="#clouds"
    begin="mountainsMorph.begin + 0.3s"
    attributeName="transform"
    type="translate"
    from="500"
    to="-50"
    dur="5s"
    repeatCount="indefinite"
    additive="sum" />

  <g id="to" transform="translate(8 34.5)">
    <g id="skis" transform="translate(-300)">
      <path d="M91.14,327.79a2.2,2.2,0,0,1-2-2.36l13.66-193.17c1.1-15.49-4.8-21.92-8.75-24.47a1.35,1.35,0,0,1,.53-2.45C103,104,122.18,104,120,134.19L106.43,326.67a2.2,2.2,0,0,1-2.35,2Z" transform="translate(-54.48 -104.9)" fill="#fff"/>
      <path d="M124.5,328.17a2.2,2.2,0,0,1-2.17-2.23l2.24-193.63c0.19-15.53-6.07-21.61-10.16-23.91a1.35,1.35,0,0,1,.39-2.47c8.36-1.9,27.49-3,27.15,27.28l-2.25,192.93a2.2,2.2,0,0,1-2.22,2.18Z" transform="translate(-54.48 -104.9)" fill="#fff"/>
    </g>
    <path id="windowTo" d="M220.52 120.53h-17.13a17.6 17.6 0 01-17.52-17.58V65.1a17.6 17.6 0 0117.52-17.58h17.13a17.6 17.6 0 0117.51 17.58v37.83a17.61 17.61 0 01-17.51 17.6z" fill="none" stroke="#fff" stroke-width="2" stroke-opacity="1"/>
    <g id="seat" transform="translate(-300)">
      <path d="M257.5,259.82H196.76V245.63h55.09a9.92,9.92,0,0,1,9.9,9.93,4.26,4.26,0,0,1-4.25,4.25" transform="translate(-54.48 -104.9)" fill="#a67ee5"/>
      <path d="M257.5,259.82H196.76V245.63h55.09a9.92,9.92,0,0,1,9.9,9.93A4.26,4.26,0,0,1,257.5,259.82Z" transform="translate(-54.48 -104.9)" fill="none" stroke="#fff" stroke-miterlimit="10" stroke-width="2"/>
      <polygon points="130.99 223.41 117.02 223.41 110.71 181.82 124.68 181.82 130.99 223.41" fill="#a67ee5"/>
      <polygon points="130.99 223.41 117.02 223.41 110.71 181.82 124.68 181.82 130.99 223.41" fill="none" stroke="#fff" stroke-miterlimit="10" stroke-width="2"/>
      <polygon points="180.54 223.41 166.58 223.41 160.28 181.82 174.24 181.82 180.54 223.41" fill="#a67ee5"/>
      <polygon points="180.54 223.41 166.58 223.41 160.28 181.82 174.24 181.82 180.54 223.41" fill="none" stroke="#fff" stroke-miterlimit="10" stroke-width="2"/>
      <path d="M281.33,272.45H225.44a5.59,5.59,0,0,1-5.53-4.77l-10.86-72.24a17.71,17.71,0,0,0-12.49-31.31H141.48L141.16,267l15.77,23.35,47.19,8.39a12.3,12.3,0,0,0,4.22.75h73a13.53,13.53,0,0,0,0-27.06" transform="translate(-54.48 -104.9)" fill="#a67ee5"/>
      <path d="M281.33,272.45H225.44a5.59,5.59,0,0,1-5.53-4.77l-10.86-72.24a17.71,17.71,0,0,0-12.49-31.31H141.48L141.16,267l15.77,23.35,47.19,8.39a12.3,12.3,0,0,0,4.22.75h73A13.53,13.53,0,0,0,281.33,272.45Z" transform="translate(-54.48 -104.9)" fill="none" stroke="#fff" stroke-miterlimit="10" stroke-width="2"/>
      <path d="M162.42,267.69l-10.86-72.24a17.71,17.71,0,1,0-29-13.61,18,18,0,0,0,.79,5.25L138.65,289a12.36,12.36,0,0,0,12.21,10.54h73a13.53,13.53,0,0,0,0-27.05H167.95a5.62,5.62,0,0,1-5.53-4.78" transform="translate(-54.48 -104.9)" fill="#a67ee5"/>
      <path d="M162.42,267.69l-10.86-72.24a17.71,17.71,0,1,0-29-13.61,18,18,0,0,0,.79,5.25L138.65,289a12.36,12.36,0,0,0,12.21,10.54h73a13.53,13.53,0,0,0,0-27.05H167.95A5.62,5.62,0,0,1,162.42,267.69Z" transform="translate(-54.48 -104.9)" fill="none" stroke="#fff" stroke-miterlimit="10" stroke-width="2"/>
      <path d="M206.26,259.82h-72l-2.13-14.19H200.6a9.92,9.92,0,0,1,9.9,9.93,4.26,4.26,0,0,1-4.25,4.25" transform="translate(-54.48 -104.9)" fill="#a67ee5"/>
      <path d="M206.26,259.82h-72l-2.13-14.19H200.6a9.92,9.92,0,0,1,9.9,9.93A4.26,4.26,0,0,1,206.26,259.82Z" transform="translate(-54.48 -104.9)" fill="none" stroke="#fff" stroke-miterlimit="10" stroke-width="2"/>
      <line x1="97.08" y1="90.54" x2="154.57" y2="90.54" fill="none" stroke="#fff" stroke-linecap="round" stroke-miterlimit="10" stroke-width="2"/>
    </g>
    <g id="herb" transform="translate(-300)">
      <path d="M79.18,194A131,131,0,0,1,94.77,220.9a255,255,0,0,1-20.08-23.55,259,259,0,0,1-17.07-25.88A131.72,131.72,0,0,1,79.18,194" transform="translate(-54.48 -104.9)" fill="#36e69a"/>
      <path d="M80.94,214.39a127.19,127.19,0,0,1,22.8,20.49A242.09,242.09,0,0,1,77.9,219.17a235.86,235.86,0,0,1-23.42-18.7,119.82,119.82,0,0,1,26.46,13.92" transform="translate(-54.48 -104.9)" fill="#36e69a"/>
      <path d="M93.66,205.48a258.38,258.38,0,0,0,10.08,29.39,125.63,125.63,0,0,0-4.5-30.52,135.9,135.9,0,0,0-12.06-29.44,260.33,260.33,0,0,0,6.47,30.57" transform="translate(-54.48 -104.9)" fill="#36e69a"/>
      <path d="M107.32,213.52a250.14,250.14,0,0,0,2.06,30.67,119.93,119.93,0,0,0,3.76-30.05,131.24,131.24,0,0,0-4-31.36,238.1,238.1,0,0,0-1.87,30.74" transform="translate(-54.48 -104.9)" fill="#25b774"/>
      <path d="M83.08,229.56a121.93,121.93,0,0,1,26.29,14.64A225.91,225.91,0,0,1,81.21,235a228.11,228.11,0,0,1-26.37-12.69,113.61,113.61,0,0,1,28.25,7.29" transform="translate(-54.48 -104.9)" fill="#25b774"/>
      <path d="M88.06,243.83A118.11,118.11,0,0,1,115.62,255a211,211,0,0,1-28.78-5.6,220.87,220.87,0,0,1-27.42-9.33,114,114,0,0,1,28.65,3.73" transform="translate(-54.48 -104.9)" fill="#25b774"/>
      <path d="M118.71,224.79a238,238,0,0,0-3.1,30.25,117.11,117.11,0,0,0,8.82-28.54,127.44,127.44,0,0,0,1.42-31.19,213.92,213.92,0,0,0-7.15,29.48" transform="translate(-54.48 -104.9)" fill="#25b774"/>
      <path d="M98.86,262a118.24,118.24,0,0,1,27.07,12.34,212.3,212.3,0,0,1-28.53-6.79,220.78,220.78,0,0,1-27-10.45A114.06,114.06,0,0,1,98.86,262" transform="translate(-54.48 -104.9)" fill="#068e4d"/>
      <path d="M130.27,244.29a236.56,236.56,0,0,0-4.34,30.1,116.94,116.94,0,0,0,10-28.16,127.42,127.42,0,0,0,2.71-31.1,214.43,214.43,0,0,0-8.36,29.16" transform="translate(-54.48 -104.9)" fill="#068e4d"/>
      <path d="M108.9,280.69a118.21,118.21,0,0,1,26.54,13.47,213.62,213.62,0,0,1-28.23-8,221.65,221.65,0,0,1-26.55-11.57,113.82,113.82,0,0,1,28.24,6.08" transform="translate(-54.48 -104.9)" fill="#068e4d"/>
      <path d="M141,264.26a236.09,236.09,0,0,0-5.58,29.9,117.46,117.46,0,0,0,11.15-27.73,127.2,127.2,0,0,0,4-31A214.24,214.24,0,0,0,141,264.26" transform="translate(-54.48 -104.9)" fill="#068e4d"/>
      <path d="M92.62,217.67A529.26,529.26,0,0,1,149.48,328" transform="translate(-54.48 -104.9)" fill="none" stroke="#36e69a" stroke-linecap="round" stroke-linejoin="round" stroke-width="2"/>
    </g>
    <clipPath id="a">
      <path d="M220.52 120.53h-17.13a17.6 17.6 0 01-17.52-17.58V65.1a17.6 17.6 0 0117.52-17.58h17.13a17.6 17.6 0 0117.51 17.58v37.83a17.61 17.61 0 01-17.51 17.6z"/>
    </clipPath>
    <g clip-path="url(#a)" >
      <g id="clouds" fill="none" stroke="#fff" stroke-linecap="round" stroke-miterlimit="10" stroke-width="2" transform="translate(0 65) scale(0.5 0.5)">
        <line x1="28.18" x2="91.09" y1="38.34" y2="38.34">
          <animateTransform
            begin="cloudsTransform.begin"
            attributeName="transform"
            type="translate"
            from="-10"
            to="30"
            dur="5s"
            repeatCount="indefinite" />
        </line>
        <path d="M1 28.08h35.29a12.4 12.4 0 1124.8 0h17.93" />
        <line x1="218.19" x2="257.97" y1="23.72" y2="23.72">
          <animateTransform
            begin="cloudsTransform.begin + 2s"
            attributeName="transform"
            type="translate"
            from="-20"
            to="20"
            dur="5s"
            repeatCount="indefinite" />
        </line>
        <path d="M237.98 13.45h-27.36a12.4 12.4 0 10-24.8 0h-17.94" />
        <line x1="246.24" x2="268.43" y1="13.45" y2="13.45" />
      </g>
    </g>
  </g>
</svg>
